<svg width="78" height="77" viewBox="0 0 78 77" fill="none" xmlns="http://www.w3.org/2000/svg">
<path d="M0 16C0 7.16345 7.16344 0 16 0H62C70.8366 0 78 7.16344 78 16V61C78 69.8366 70.8366 77 62 77H16C7.16344 77 0 69.8366 0 61V16Z" fill="#18181C"/>
<path d="M47.0693 40.6564L48.0521 34.4117H41.9978V30.3526C41.9978 28.6451 42.843 26.9766 45.5459 26.9766H48.3372V21.6588C46.7116 21.3996 45.0691 21.2594 43.4229 21.2393C38.4398 21.2393 35.1866 24.2348 35.1866 29.6501V34.4117H29.663V40.6564H35.1866V55.7607H41.9978V40.6564H47.0693Z" fill="white"/>
</svg>
