<svg width="77" height="77" viewBox="0 0 77 77" fill="none" xmlns="http://www.w3.org/2000/svg">
<rect width="77" height="77" rx="16" fill="#18181C"/>
<path d="M30.5427 52.4425V33.6272H24.2943V52.4425H30.5433H30.5427ZM27.4198 31.0587C29.5983 31.0587 30.9545 29.6139 30.9545 27.8083C30.9138 25.9616 29.5983 24.5571 27.4612 24.5571C25.3227 24.5571 23.926 25.9616 23.926 27.8082C23.926 29.6137 25.2818 31.0585 27.3789 31.0585H27.4193L27.4198 31.0587ZM34.0012 52.4425H40.2491V41.9363C40.2491 41.3747 40.2899 40.8116 40.455 40.4105C40.9064 39.2865 41.9345 38.123 43.661 38.123C45.9214 38.123 46.8262 39.8483 46.8262 42.3779V52.4425H53.0739V41.6544C53.0739 35.8753 49.9918 33.1861 45.8809 33.1861C42.5106 33.1861 41.0304 35.0715 40.208 36.3556H40.2496V33.6278H34.0016C34.0831 35.3929 34.0011 52.4431 34.0011 52.4431L34.0012 52.4425Z" fill="white"/>
</svg>
