<svg width="77" height="77" viewBox="0 0 77 77" fill="none" xmlns="http://www.w3.org/2000/svg">
<path d="M0 16C0 7.16345 7.16344 0 16 0H61C69.8366 0 77 7.16344 77 16V61C77 69.8366 69.8366 77 61 77H16C7.16345 77 0 69.8366 0 61V16Z" fill="#18181C"/>
<path d="M33.5052 38.4998C33.5052 35.7398 35.7414 33.5018 38.5006 33.5018C41.2599 33.5018 43.4972 35.7398 43.4972 38.4998C43.4972 41.2599 41.2599 43.4979 38.5006 43.4979C35.7414 43.4979 33.5052 41.2599 33.5052 38.4998ZM30.8041 38.4998C30.8041 42.7518 34.2498 46.1985 38.5006 46.1985C42.7514 46.1985 46.1971 42.7518 46.1971 38.4998C46.1971 34.2478 42.7514 30.8011 38.5006 30.8011C34.2498 30.8011 30.8041 34.2478 30.8041 38.4998ZM44.7032 30.4958C44.703 30.8517 44.8084 31.1996 45.0059 31.4955C45.2034 31.7915 45.4842 32.0222 45.8128 32.1585C46.1414 32.2948 46.5031 32.3306 46.852 32.2613C47.2009 32.192 47.5215 32.0208 47.7731 31.7693C48.0248 31.5178 48.1962 31.1972 48.2658 30.8483C48.3353 30.4993 48.2998 30.1375 48.1638 29.8087C48.0278 29.4799 47.7974 29.1988 47.5017 29.001C47.206 28.8032 46.8583 28.6976 46.5025 28.6974H46.5018C46.025 28.6976 45.5677 28.8872 45.2305 29.2244C44.8932 29.5616 44.7036 30.0189 44.7032 30.4958ZM32.4452 50.7038C30.9839 50.6372 30.1896 50.3937 29.6618 50.188C28.962 49.9155 28.4627 49.5909 27.9377 49.0665C27.4127 48.5421 27.0878 48.0432 26.8165 47.3432C26.6108 46.8154 26.3674 46.0207 26.3009 44.5589C26.2283 42.9785 26.2138 42.5038 26.2138 38.4999C26.2138 34.4961 26.2295 34.0227 26.3009 32.441C26.3675 30.9792 26.6127 30.186 26.8165 29.6567C27.089 28.9567 27.4135 28.4573 27.9377 27.9322C28.4619 27.4071 28.9608 27.082 29.6618 26.8107C30.1894 26.6049 30.9839 26.3614 32.4452 26.2949C34.0251 26.2222 34.4997 26.2077 38.5006 26.2077C42.5015 26.2077 42.9766 26.2234 44.5578 26.2949C46.0192 26.3615 46.8121 26.6068 47.3413 26.8107C48.0411 27.082 48.5404 27.4078 49.0654 27.9322C49.5903 28.4566 49.9141 28.9567 50.1865 29.6567C50.3923 30.1845 50.6357 30.9792 50.7021 32.441C50.7748 34.0227 50.7893 34.4961 50.7893 38.4999C50.7893 42.5038 50.7748 42.9772 50.7021 44.5589C50.6356 46.0207 50.391 46.8152 50.1865 47.3432C49.9141 48.0432 49.5896 48.5426 49.0654 49.0665C48.5411 49.5904 48.0411 49.9155 47.3413 50.188C46.8137 50.3938 46.0192 50.6373 44.5578 50.7038C42.9779 50.7764 42.5033 50.791 38.5006 50.791C34.4979 50.791 34.0247 50.7764 32.4452 50.7038ZM32.3211 23.5976C30.7255 23.6703 29.6351 23.9234 28.6829 24.294C27.6968 24.6768 26.862 25.1902 26.0278 26.0234C25.1936 26.8565 24.6816 27.6929 24.2989 28.6793C23.9284 29.6324 23.6754 30.7224 23.6027 32.3185C23.5289 33.9171 23.512 34.4282 23.512 38.4998C23.512 42.5714 23.5289 43.0825 23.6027 44.6811C23.6754 46.2774 23.9284 47.3673 24.2989 48.3204C24.6816 49.3062 25.1937 50.1435 26.0278 50.9763C26.8619 51.809 27.6968 52.3218 28.6829 52.7056C29.6369 53.0763 30.7255 53.3293 32.3211 53.402C33.9201 53.4747 34.4302 53.4928 38.5006 53.4928C42.5711 53.4928 43.082 53.4759 44.6802 53.402C46.2759 53.3293 47.3655 53.0763 48.3183 52.7056C49.3039 52.3218 50.1393 51.8094 50.9735 50.9763C51.8077 50.1431 52.3186 49.3062 52.7023 48.3204C53.0728 47.3673 53.3271 46.2772 53.3985 44.6811C53.4712 43.0813 53.4881 42.5714 53.4881 38.4998C53.4881 34.4282 53.4712 33.9171 53.3985 32.3185C53.3259 30.7223 53.0728 29.6318 52.7023 28.6793C52.3186 27.6935 51.8064 26.8578 50.9735 26.0234C50.1406 25.1889 49.3039 24.6768 48.3195 24.294C47.3655 23.9234 46.2758 23.6691 44.6814 23.5976C43.0832 23.5249 42.5723 23.5068 38.5018 23.5068C34.4314 23.5068 33.9201 23.5237 32.3211 23.5976Z" fill="white"/>
</svg>
