<svg width="74" height="73" viewBox="0 0 74 73" fill="none" xmlns="http://www.w3.org/2000/svg">
<rect width="74" height="73" rx="16" fill="#18181C"/>
<path d="M49.7318 28.4478C48.9007 28.8058 48.027 29.055 47.1323 29.1894C47.5506 29.1177 48.1661 28.364 48.4111 28.059C48.7834 27.5989 49.067 27.0736 49.2478 26.5098C49.2478 26.468 49.2896 26.4082 49.2478 26.3783C49.2267 26.3667 49.203 26.3607 49.179 26.3607C49.155 26.3607 49.1314 26.3667 49.1103 26.3783C48.1387 26.9049 47.1047 27.3068 46.0327 27.5745C45.9953 27.5859 45.9556 27.587 45.9177 27.5775C45.8798 27.568 45.8452 27.5484 45.8176 27.5207C45.7341 27.4212 45.6443 27.3273 45.5486 27.2396C45.1114 26.8475 44.6153 26.5265 44.0786 26.2885C43.354 25.991 42.5714 25.8622 41.7898 25.9117C41.0314 25.9597 40.2909 26.1633 39.6145 26.5098C38.9484 26.8753 38.363 27.3717 37.8935 27.9693C37.3995 28.5844 37.0429 29.2982 36.8477 30.0627C36.6866 30.7899 36.6684 31.5416 36.7939 32.2758C36.7939 32.4014 36.7939 32.4193 36.6863 32.4014C32.4255 31.7734 28.9295 30.2601 26.073 27.0123C25.9475 26.8687 25.8818 26.8687 25.7802 27.0123C24.5372 28.9023 25.1408 31.893 26.6945 33.3703C26.9037 33.5677 27.1188 33.7591 27.3459 33.9386C26.6335 33.8879 25.9385 33.6947 25.3021 33.3703C25.1826 33.2926 25.1169 33.3345 25.1109 33.478C25.094 33.677 25.094 33.8771 25.1109 34.0761C25.2356 35.0299 25.6111 35.9334 26.1991 36.6943C26.7871 37.4551 27.5664 38.046 28.4574 38.4066C28.6746 38.4997 28.901 38.5698 29.1327 38.6159C28.4732 38.7459 27.7968 38.7661 27.1308 38.6757C26.9874 38.6458 26.9336 38.7236 26.9874 38.8611C27.8658 41.2536 29.7721 41.9834 31.1705 42.3901C31.3617 42.42 31.553 42.42 31.7681 42.4678C31.7681 42.4678 31.7681 42.4678 31.7323 42.5037C31.3199 43.2574 29.6526 43.7658 28.8877 44.029C27.4915 44.5309 26.0029 44.7227 24.5253 44.5912C24.2922 44.5553 24.2384 44.5613 24.1787 44.5912C24.1189 44.6211 24.1787 44.6869 24.2444 44.7467C24.5432 44.9441 24.842 45.1175 25.1527 45.285C26.0778 45.79 27.0559 46.1912 28.069 46.4813C33.3159 47.9287 39.2201 46.8641 43.1583 42.9463C46.2538 39.872 47.3414 35.6313 47.3414 31.3846C47.3414 31.2231 47.5386 31.1274 47.6522 31.0436C48.4353 30.4329 49.1258 29.7116 49.7019 28.9023C49.8017 28.7817 49.8529 28.6281 49.8454 28.4717C49.8454 28.382 49.8454 28.3999 49.7318 28.4478Z" fill="white"/>
</svg>
