<svg width="34" height="33" viewBox="0 0 34 33" fill="none" xmlns="http://www.w3.org/2000/svg">
<g clip-path="url(#clip0_135_175)">
<path d="M21.0676 7.74187C22.7028 7.81361 24.8653 7.32761 25.3398 9.34944L25.3714 24.8875C25.2335 26.1091 24.438 26.6648 23.2142 26.7568C19.2188 27.0559 14.8276 26.5224 10.79 26.7568C9.78407 26.6739 8.93489 26.1778 8.73917 25.1896L8.73706 9.42118C9.0096 7.32862 11.2836 7.80856 12.8841 7.7449C13.0766 7.68024 13.2618 6.77794 14.0605 6.65164C14.915 6.51625 19.0714 6.52433 19.9406 6.65265C20.4857 6.73348 20.9729 7.23465 21.0676 7.74187ZM19.969 9.74754C20.3026 9.48887 20.4299 7.74895 19.8196 7.57617L14.2668 7.55697C13.5712 7.6863 13.5733 9.69601 14.392 9.85666C16.0135 9.79503 17.8245 10.0133 19.425 9.88192C19.6197 9.86576 19.807 9.87283 19.969 9.74653V9.74754ZM12.9493 8.6664H10.3712C10.0787 8.6664 9.45787 9.47877 9.57783 9.82433C9.90087 14.5985 9.16218 19.8688 9.57783 24.5834C9.65043 25.4069 9.90193 25.7666 10.7879 25.8464C14.8045 25.5584 19.3682 26.2152 23.3195 25.8474C23.7593 25.806 24.1855 25.6554 24.3717 25.2412L24.4212 9.52222C24.4707 9.18171 23.9245 8.66539 23.6299 8.66539H21.0518C21.3664 9.94457 20.6299 10.6983 19.3198 10.7913C18.3222 10.862 14.956 10.9247 14.1258 10.7175C13.204 10.4872 12.7925 9.51514 12.9493 8.66438V8.6664Z" fill="white"/>
<path d="M17.7896 1.99737L16.4343 0.720208C16.1323 0.164483 16.5869 -0.213411 17.1519 0.13417C17.3277 0.242284 19.286 2.10447 19.3722 2.24492C19.5164 2.47933 19.5133 2.53086 19.3722 2.76124C19.2891 2.89663 17.233 4.84369 17.0909 4.91442C16.4764 5.22462 15.985 4.87097 16.308 4.26372L17.8938 2.90674H6.58292C5.60851 2.90674 4.20057 3.89997 3.70811 4.69314C2.57796 6.5139 3.42925 10.6344 3.16513 12.8613C3.07464 13.6211 2.32121 13.5797 2.21914 13.0583C2.36751 10.8435 2.00868 8.37508 2.21809 6.19158C2.4096 4.18895 4.51941 1.99636 6.68814 1.99636H17.7896V1.99737Z" fill="white"/>
<path d="M16.2114 30.8952C16.4808 31.4075 17.875 32.1582 17.6699 32.7473C17.6004 32.9474 17.2553 33.0565 17.0564 32.9696C16.9143 32.908 14.9161 30.9801 14.8371 30.8498C14.6888 30.6052 14.6835 30.483 14.8371 30.2324C14.9308 30.0788 16.9733 28.1217 17.1279 28.0802C17.5278 27.9741 17.7814 28.3268 17.6656 28.7006C17.5983 28.9168 16.2472 29.9374 16.4219 30.0859C19.4156 30.0111 22.4314 30.1859 25.4241 30.0889C26.9972 30.0384 28.4315 30.0879 29.63 28.9775C30.0193 28.6168 30.837 27.3891 30.837 26.9031V18.8198C30.837 18.4995 31.784 18.4995 31.784 18.8198V26.8021C31.784 28.445 29.3596 30.8942 27.6275 30.8942H16.2104L16.2114 30.8952Z" fill="white"/>
<path d="M3.16315 16.4466V26.9043C3.16315 27.0023 3.42516 27.647 3.49461 27.7985C4.97411 31.0601 9.46626 29.9002 12.3737 30.0376C13.0598 30.0699 12.9809 30.8005 12.4737 30.8924C10.1492 30.6529 6.70825 31.4603 4.66895 30.3084C3.60405 29.7072 2.2161 28.0198 2.2161 26.8033V16.3455C1.8215 16.5264 0.792375 17.851 0.483006 17.8581C0.0799856 17.8682 -0.106267 17.5004 0.0599924 17.1549C0.124181 17.0215 1.98776 15.2452 2.21294 15.0805C2.47286 14.8905 2.58124 14.742 2.90323 14.9239C3.04108 15.0017 5.08565 16.9649 5.16667 17.0973C5.38239 17.4509 5.24139 17.8803 4.8089 17.8389C4.40272 17.8005 3.59247 16.6547 3.16209 16.4466H3.16315Z" fill="white"/>
<path d="M27.4181 1.99755C29.2217 2.17336 31.785 4.0406 31.785 5.88763V15.537C32.2354 15.3208 33.1951 13.982 33.6202 14.0164C33.9779 14.0457 34.0779 14.4428 33.9401 14.7267C33.8759 14.8591 32.0112 16.6364 31.7861 16.8011C31.6493 16.9011 31.4967 17.0547 31.3073 17.0506C30.9832 17.0426 29.2995 15.049 28.7871 14.8267C28.5061 14.5014 28.6408 14.0285 29.1101 14.0224C29.5794 14.0164 30.3634 15.2026 30.8369 15.436V5.88763C30.8369 4.76405 28.785 2.90692 27.6275 2.90692H21.4191C21.1423 2.90692 21.0181 2.12991 21.4191 1.99755C23.3405 2.13395 25.5292 1.81365 27.417 1.99755H27.4181Z" fill="white"/>
<path d="M22.2892 18.7462C22.1713 18.8584 21.9051 18.8624 21.7409 18.8755C20.7329 18.9574 18.5031 18.9857 17.5255 18.8735C17.0162 18.8149 16.7563 18.5694 16.9731 18.0884C17.0552 17.9995 17.2909 17.9742 17.4203 17.9621C18.4042 17.8712 21.0086 17.8348 21.9514 17.9571C22.4123 18.0167 22.6006 18.4471 22.2892 18.7462Z" fill="white"/>
<path d="M14.9117 17.0737C15.3347 17.0343 15.5409 17.4819 15.3084 17.8507C15.1874 18.0427 13.4069 19.7331 13.2364 19.8049C13.0502 19.8837 12.9386 19.92 12.7408 19.8321C12.6693 19.8008 11.6675 18.8369 11.6338 18.7682C11.5023 18.4964 11.597 18.072 11.9463 18.0649C12.3599 18.0568 12.7577 18.8005 12.987 18.7621C13.4174 18.5045 14.5065 17.1111 14.9117 17.0737Z" fill="white"/>
<path d="M17.1058 22.2056H22.1567C22.2093 22.2056 22.4314 22.4592 22.4251 22.5643C22.4808 22.6936 22.2335 23.0139 22.1567 23.0139H17.1058C16.8838 23.0139 16.7659 22.3339 17.1058 22.2056Z" fill="white"/>
<path d="M12.8462 23.014L14.7403 21.3458C15.0402 21.1377 15.4916 21.5337 15.4285 21.8106C15.3822 22.0106 13.3029 23.9921 13.1029 24.0254C12.4884 24.1275 11.1384 22.7169 11.6803 22.3512C12.0949 22.0713 12.7662 22.6129 12.8462 23.014Z" fill="white"/>
<path d="M17.1057 14.6277C16.7816 14.5317 16.8163 13.8193 17.2109 13.8193H22.1566C22.2092 13.8193 22.4312 14.0729 22.4249 14.178C22.4807 14.3074 22.2334 14.6277 22.1566 14.6277H17.1057Z" fill="white"/>
<path d="M14.8138 12.8231C15.1379 12.7351 15.3094 12.9534 15.4283 13.204C15.4568 13.2717 15.4262 13.3242 15.3999 13.3848C15.3379 13.5263 13.3038 15.5229 13.1586 15.5885C12.9934 15.6623 12.9071 15.6623 12.7419 15.5885C12.6714 15.5562 11.6696 14.5933 11.637 14.5256C11.4739 14.1871 11.6507 13.8062 12.04 13.8415C12.3946 13.8739 12.643 14.4417 12.9881 14.5195C13.2312 14.4791 14.4855 12.913 14.8138 12.8241V12.8231Z" fill="white"/>
</g>
<defs>
<clipPath id="clip0_135_175">
<rect width="34" height="33" fill="white"/>
</clipPath>
</defs>
</svg>
