<svg width="34" height="33" viewBox="0 0 34 33" fill="none" xmlns="http://www.w3.org/2000/svg">
<g clip-path="url(#clip0_135_214)">
<path d="M31.9059 8.19444C31.9287 7.74979 31.8759 7.29578 31.9083 6.84996C31.9299 6.55041 32.027 5.47038 32.1097 5.29369C32.2355 5.02807 32.6023 5.14157 32.8744 5.20359C33.0566 5.32528 33.0015 7.08164 32.9919 7.4397C32.9739 8.06923 32.9392 9.18437 32.8552 9.76358C32.7821 10.2656 32.5808 10.5909 31.9994 10.5148C31.7525 10.482 28.7942 9.31893 28.6659 9.1949C28.5521 9.08491 28.455 8.90354 28.4574 8.74089C28.5509 7.61639 30.5898 9.17267 31.1867 9.0732C28.4622 5.07721 24.799 2.14136 19.8246 1.32577C5.82066 -0.973531 -4.145 13.9749 3.95195 25.3626C12.3953 37.2371 31.6326 32.36 32.8648 17.8468C32.92 17.1974 32.5712 15.4223 33.3347 15.2679C34.2025 15.2913 33.9856 16.8499 33.9496 17.5017C32.9691 35.3508 7.45923 38.9338 1.09914 22.1798C-4.30682 7.93467 11.2674 -5.01165 24.9585 1.9319C27.9168 3.43201 29.9401 5.63653 31.9071 8.19444H31.9059Z" fill="white"/>
<path d="M15.8211 4.13414C25.9846 3.25421 33.2137 13.9047 28.2117 22.6655C23.2097 31.4263 10.8167 31.0483 5.95376 22.7064C1.39286 14.8806 6.6358 4.92983 15.8211 4.13414ZM16.4444 5.15216C10.4739 5.38735 5.46231 10.2773 5.41676 16.1514H7.27469C7.55038 16.1514 7.67863 17.0875 7.27469 17.0875H5.41676C5.48149 22.9487 10.5518 27.6409 16.4444 27.9697V25.6879C16.4444 25.317 17.5232 25.317 17.5232 25.6879V27.9697C23.6244 27.7017 28.5461 22.944 28.7906 16.9705H26.9327C26.8452 16.9705 26.5635 16.5995 26.6271 16.4498C26.6199 16.3281 26.8728 16.0344 26.9327 16.0344H28.7906C28.4346 10.2914 23.471 5.34991 17.5232 5.15216V7.08287C17.5232 7.45497 16.4444 7.46784 16.4444 6.96586V5.15216Z" fill="white"/>
<path d="M16.4444 15.0982V10.0082C16.4444 9.63725 17.5232 9.63725 17.5232 10.0082V14.9227C18.6212 15.4434 18.8309 16.1139 18.7111 17.2653L22.8608 20.7195L22.8297 21.1525C22.5408 21.7259 22.011 21.3034 21.6622 21.0624C20.4623 20.2363 19.2972 18.9714 18.1189 18.0774C17.8157 17.944 17.4309 18.2716 17.0018 18.2506C15.175 18.157 14.6968 15.7009 16.4456 15.0982H16.4444ZM16.8915 15.9337C16.1699 16.1244 16.2274 17.3578 17.1948 17.1858C18.1621 17.0137 17.7366 15.7102 16.8915 15.9337Z" fill="white"/>
</g>
<defs>
<clipPath id="clip0_135_214">
<rect width="34" height="33" fill="white"/>
</clipPath>
</defs>
</svg>
