<svg width="36" height="33" viewBox="0 0 36 33" fill="none" xmlns="http://www.w3.org/2000/svg">
<g clip-path="url(#clip0_135_190)">
<path d="M12.1258 3.31546C28.156 1.78584 33.5023 24.4753 19.7515 31.5111C8.92857 37.0487 -2.57939 26.2467 0.510613 13.9217C1.9197 8.29726 6.69914 3.83322 12.1258 3.31546ZM13.4703 4.35887C3.65181 4.57832 -2.05646 15.952 2.86559 25.0469C6.84054 32.3928 16.0679 34.0434 22.0809 28.5031C31.207 20.0967 25.45 4.0921 13.4703 4.35887Z" fill="white"/>
<path d="M25.9535 5.27786C28.4572 4.85472 30.3453 2.96897 30.4599 0.152821C31.5947 -0.491094 31.4192 1.06482 31.68 1.86774C32.1054 3.17922 33.2415 4.31856 34.4251 4.82186C34.8883 5.01898 35.9987 5.08732 35.9987 5.70758C35.9987 6.32784 34.8676 6.40537 34.4226 6.59197C33.2378 7.08871 32.0311 8.31478 31.6459 9.64334C31.4996 10.1466 31.5618 11.6329 30.8658 11.5633C30.2466 11.5015 30.2795 10.0691 30.0905 9.49485C29.681 8.24513 28.6607 7.21618 27.5515 6.71287C26.8116 6.37646 25.3489 6.41851 25.9523 5.27918L25.9535 5.27786ZM31.0425 8.53292C31.3168 7.19384 32.5065 6.44217 33.4792 5.70758C32.465 5.05052 31.3595 4.16349 31.0425 2.88223C30.2941 3.97952 29.5298 5.24632 28.2402 5.64318C28.7253 6.15175 29.4067 6.43559 29.8906 6.94941C30.3331 7.41855 30.5793 8.08481 31.0413 8.53292H31.0425Z" fill="white"/>
<path d="M18.0804 23.2797C18.4522 23.2416 18.6667 23.5951 18.6143 23.967C18.5436 24.4611 17.2089 25.4532 16.781 25.6793C14.587 26.8436 12.1211 26.582 10.1123 25.1194C9.70757 24.8251 8.86528 24.2771 9.27972 23.6358C9.64784 23.0655 10.4353 24.0222 10.7254 24.1956C12.5513 25.2916 14.342 25.6687 16.3008 24.6345C16.7262 24.4098 17.8915 23.2968 18.0816 23.2784L18.0804 23.2797Z" fill="white"/>
<path d="M16.3885 14.872C16.5178 15.0179 16.6019 15.8234 16.7225 16.1533C17.5478 18.3965 20.2806 18.516 21.0705 16.2439C21.2302 15.7853 21.274 14.3477 22.0212 14.7669C22.7087 15.1532 22.1151 16.7604 21.8031 17.2965C20.0319 20.3361 15.9449 19.1508 15.4926 15.7643C15.3902 14.9942 15.8608 14.2793 16.3873 14.8707L16.3885 14.872Z" fill="white"/>
<path d="M5.65466 14.7324C6.50791 14.459 6.38968 15.6378 6.64443 16.2436C7.50256 18.287 10.0916 18.3633 10.8705 16.2856C11.085 15.7127 10.9497 14.6982 11.6018 14.6956C12.6331 14.6916 11.9602 16.4801 11.6859 17.0321C10.5657 19.2779 7.91212 19.701 6.3202 17.7745C5.91063 17.2791 4.73924 15.0254 5.65466 14.731V14.7324Z" fill="white"/>
</g>
<defs>
<clipPath id="clip0_135_190">
<rect width="36" height="33" fill="white"/>
</clipPath>
</defs>
</svg>
