<svg width="34" height="30" viewBox="0 0 34 30" fill="none" xmlns="http://www.w3.org/2000/svg">
<g clip-path="url(#clip0_135_199)">
<path d="M13.1568 13.4457C17.4352 14.462 20.5704 18.3585 21.1329 22.8876C21.2842 24.1013 21.4301 27.0865 21.0914 28.1719C20.7952 29.1234 19.8993 29.7626 18.966 29.8507C13.5946 29.4782 7.64051 30.3315 2.33836 29.8507C1.4062 29.766 0.637032 29.2405 0.279081 28.3258C-0.271694 26.9202 0.0937141 22.756 0.485755 21.2098C1.4371 17.4583 4.5404 14.337 8.14761 13.4468L6.8788 12.7128C0.875667 8.17819 4.89409 -1.60725 12.3056 0.22668C17.1092 1.41584 18.8787 7.87811 15.5548 11.6631C14.8507 12.4652 13.9632 12.84 13.1568 13.4457ZM9.50803 1.09345C7.52226 1.37456 5.60999 3.31782 5.13592 5.32801C4.09296 9.7444 7.60109 13.6956 11.8816 12.7262C18.7785 11.1634 17.2466 -0.00423523 9.50803 1.09345ZM10.258 14.0381C3.4495 14.3928 0.302519 20.9365 1.01203 27.4468C1.09406 28.1986 1.58837 28.83 2.33836 28.8468L19.3176 28.7664C19.9334 28.5813 20.2274 27.9688 20.2956 27.3363C21.0157 20.6219 17.3563 13.67 10.2591 14.0392L10.258 14.0381Z" fill="white"/>
<path d="M25.9217 1.20161C31.683 1.07779 35.6673 7.01911 33.3097 12.6291C32.3946 14.8078 30.4078 16.2289 29.8506 18.6006C29.5118 20.0407 29.7025 21.2723 29.5512 22.6377C29.2572 25.2993 25.9728 26.484 23.97 24.9368C22.1269 23.5122 22.8311 21.4463 22.519 19.4283C22.0417 16.3416 20.0176 15.2819 18.9246 12.7061C16.6341 7.3058 20.2956 1.3232 25.9217 1.20161ZM27.5388 20.14L28.6649 20.0363C28.7917 18.3261 29.3264 16.8481 30.265 15.4648C31.9834 12.9325 33.6943 11.3161 32.923 7.75425C31.2419 0.00241363 19.9867 0.787748 19.242 8.27297C18.7179 13.5338 22.1333 14.1663 23.2232 18.132C23.3958 18.7579 23.4852 19.3859 23.5364 20.0351L24.6624 20.1389V12.7764C23.3542 13.0095 21.9245 11.5939 22.7438 10.2653C23.7569 8.62436 25.9675 9.96858 25.5136 11.7724H26.58C26.2295 10.1939 27.9863 8.73703 29.1901 9.98642C30.3385 11.18 28.9791 13.0486 27.5388 12.7753V20.1378V20.14ZM24.5559 11.7735C24.6465 11.2704 24.4494 10.2988 23.8123 10.6011C22.9909 10.9926 23.9039 11.9933 24.5559 11.7735ZM27.5378 11.7735C28.4167 12.1182 29.1059 10.5542 28.1237 10.5553C27.5441 10.5553 27.4813 11.3306 27.5378 11.7735ZM26.58 12.7775H25.6212V20.14H26.58V12.7775ZM28.6042 21.0324H23.5971V22.6499C23.5971 23.0437 24.3439 23.9718 24.6688 24.205C25.764 24.9892 27.4813 24.6133 28.2238 23.4799C28.2995 23.3639 28.6031 22.7247 28.6031 22.6499V21.0324H28.6042Z" fill="white"/>
</g>
<defs>
<clipPath id="clip0_135_199">
<rect width="34" height="30" fill="white"/>
</clipPath>
</defs>
</svg>
