<svg width="34" height="33" viewBox="0 0 34 33" fill="none" xmlns="http://www.w3.org/2000/svg">
<g clip-path="url(#clip0_135_205)">
<path d="M28.7039 9.19952V32.5694C28.7039 32.6001 28.2455 32.9546 28.1219 32.9816C27.1769 33.1865 24.1603 30.7697 23.123 30.4397C22.7569 30.4152 20.0423 32.3829 19.3711 32.6111C17.5328 33.2368 15.8852 30.9354 14.2612 30.4422C12.9798 30.9317 10.9881 32.9178 9.55024 32.7485C8.66625 32.6442 5.93448 30.4164 5.47136 30.4177C4.35581 30.8151 1.80711 32.9264 0.766657 32.9951C-0.34107 33.0687 0.0813682 32.3326 0.0829328 31.8395C0.107966 22.0266 0.0359952 12.2137 0.0891911 2.40201C0.447481 1.04766 1.85091 0.136171 3.59386 0L30.935 0.0282156C32.0787 0.169294 33.5979 1.1458 33.8326 2.04993C34.0595 2.92216 34.0407 7.69305 33.8764 8.65238C33.8482 8.81431 33.6761 9.19829 33.4774 9.19829H28.7055L28.7039 9.19952ZM28.0781 1.10286H3.27938C2.47362 1.10286 1.32365 2.28424 1.32365 2.88167V31.404C2.47518 31.1071 4.34017 29.3111 5.4698 29.3111C5.81714 29.3111 6.09407 29.4608 6.38039 29.5859C7.34104 30.0067 8.78516 31.3034 9.62221 31.5904C9.74112 31.6309 9.83656 31.6849 9.97424 31.6358C11.0726 31.1648 13.0502 29.4093 14.2283 29.3847C15.6396 29.3541 18.0741 31.7156 18.7406 31.6248C19.8092 31.1844 22.0106 29.3357 23.1496 29.3357C24.1635 29.3357 26.3007 31.1206 27.2958 31.5267V2.26829C27.2958 2.04625 27.9013 1.33717 28.0781 1.10286ZM32.6154 8.09543V2.51364C32.6154 2.48052 32.3415 1.99963 32.279 1.91866C31.5827 1.01086 30.0119 0.937249 29.1733 1.77758C29.0856 1.86468 28.7039 2.35539 28.7039 2.39097V8.09543H32.6154Z" fill="white"/>
<path d="M14.9418 6.37321C16.217 6.30205 18.0772 7.61101 18.1962 8.55808C18.2431 8.92856 17.7002 9.29046 17.2355 9.18373C16.7427 9.07086 16.5565 7.87599 15.1264 7.51778C13.2927 7.05897 11.3527 8.12135 11.8799 9.69406C12.3884 11.2128 16.3249 10.6387 17.6626 12.1513C19.2538 13.9509 17.4952 16.2487 14.9559 16.5762C14.97 17.0056 15.0138 17.8668 14.2299 17.8668C13.2599 17.8668 13.6651 16.7823 13.457 16.5517C13.4085 16.4977 12.2429 16.2205 11.9081 16.0487C11.1743 15.6709 9.2968 13.708 10.6627 13.3915C11.6984 13.1511 11.603 14.0233 11.9848 14.5165C13.4602 16.4143 17.586 15.2611 16.738 13.1192C16.2482 11.8826 12.1756 12.1893 10.8895 10.7135C9.40319 9.00707 10.9897 6.64187 13.5087 6.3683L13.7856 5.14399C15.0513 4.79313 14.9935 5.61506 14.9371 6.37443L14.9418 6.37321Z" fill="white"/>
<path d="M5.78267 21.4674C4.84079 21.3435 5.39308 20.2418 6.24891 20.3608C11.3401 20.6393 17.0445 19.9989 22.0622 20.3571C22.5112 20.389 22.8601 20.4258 23.1543 20.7313C23.4093 20.9251 23.0353 21.4674 22.8366 21.4674H5.78267Z" fill="white"/>
<path d="M5.42912 24.5649C5.57776 24.4324 6.01584 24.4201 6.24583 24.4066C9.88662 24.1969 13.8482 24.5784 17.5249 24.4066C18.5247 24.5097 18.5654 25.4101 17.3638 25.5181C13.8748 25.8321 9.65663 25.274 6.08781 25.5218C5.43851 25.5021 5.13654 25.0127 5.42912 24.5649Z" fill="white"/>
</g>
<defs>
<clipPath id="clip0_135_205">
<rect width="34" height="33" fill="white"/>
</clipPath>
</defs>
</svg>
