<svg width="77" height="77" viewBox="0 0 77 77" fill="none" xmlns="http://www.w3.org/2000/svg">
<path d="M0 16C0 7.16345 7.16344 0 16 0H61C69.8366 0 77 7.16344 77 16V61C77 69.8366 69.8366 77 61 77H16C7.16345 77 0 69.8366 0 61V16Z" fill="#18181C"/>
<path d="M21.05 57.1641C19.8503 57.1641 18.8142 56.7169 17.9417 55.8226C17.1056 54.8894 16.6875 53.7812 16.6875 52.4981V24.502C16.6875 23.2188 17.1056 22.1301 17.9417 21.2357C18.8142 20.3025 19.8503 19.8359 21.05 19.8359H55.95C57.1497 19.8359 58.1676 20.3025 59.0038 21.2357C59.8763 22.1301 60.3125 23.2188 60.3125 24.502V52.4981C60.3125 53.7812 59.8763 54.8894 59.0038 55.8226C58.1676 56.7169 57.1497 57.1641 55.95 57.1641H21.05ZM38.5 40.833L55.95 29.168V24.502L38.5 36.167L21.05 24.502V29.168L38.5 40.833Z" fill="white"/>
</svg>
